PathFileType  4	(X/Y/Z) C:\Users\antoi\Documents\MyRepositories\mobilecap\ResultsAnalysis
DataRate	CameraRate	NumFrames	NumMarkers	Units	OrigDataRate	OrigDataStartFrame	OrigNumFrames
100.0	100.0	5	51	mm	100.0	91	240
Frame#	Time	r_knee			r_shank_antsup			r_ankle			r_calc			r_5meta			r_toe			L_knee			L_shank_antsup			L_ankle			L_calc			L_5meta			L_toe			r_sh2			r_sh3			r_sh4			L_sh2			L_sh3			r_thigh1			r_thigh2			r_thigh3			r_thigh4			r_thigh5			L_thigh1			L_thigh2			L_thigh3			L_thigh4			r.ASIS			r.PSIS			L.ASIS			L.PSIS			C7			R_Shoulder			L_Shoulder			R_Sternum			L_Sternum			R_humerus			R_elbow_med			R_elbow_lat			R_forearm			R_wrist_radius			R_wrist_ulna			L_humerus			L_elbow_med			L_elbow_lat			L_forearm			L_wrist_radius			L_wrist_ulna			R_HJC			L_HJC			R_HJC_reg			L_HJC_reg			
		X1	Y1	Z1	X2	Y2	Z2	X3	Y3	Z3	X4	Y4	Z4	X5	Y5	Z5	X6	Y6	Z6	X7	Y7	Z7	X8	Y8	Z8	X9	Y9	Z9	X10	Y10	Z10	X11	Y11	Z11	X12	Y12	Z12	X13	Y13	Z13	X14	Y14	Z14	X15	Y15	Z15	X16	Y16	Z16	X17	Y17	Z17	X18	Y18	Z18	X19	Y19	Z19	X20	Y20	Z20	X21	Y21	Z21	X22	Y22	Z22	X23	Y23	Z23	X24	Y24	Z24	X25	Y25	Z25	X26	Y26	Z26	X27	Y27	Z27	X28	Y28	Z28	X29	Y29	Z29	X30	Y30	Z30	X31	Y31	Z31	X32	Y32	Z32	X33	Y33	Z33	X34	Y34	Z34	X35	Y35	Z35	X36	Y36	Z36	X37	Y37	Z37	X38	Y38	Z38	X39	Y39	Z39	X40	Y40	Z40	X41	Y41	Z41	X42	Y42	Z42	X43	Y43	Z43	X44	Y44	Z44	X45	Y45	Z45	X46	Y46	Z46	X47	Y47	Z47	X48	Y48	Z48	X49	Y49	Z49	X50	Y50	Z50	X51	Y51	Z51	

91	0.90000000	-832.71560	681.56011	-450.93353	-839.51811	599.00373	-471.09179	-1148.42564	454.53726	-487.95255	-1231.02448	454.99925	-529.33850	-1091.03492	364.73837	-446.24389	-1032.35354	364.67407	-498.89401	-839.02734	683.32348	-746.39337	-862.88989	587.48722	-745.19288	-1139.22132	444.43697	-721.40987	-1224.35230	435.51917	-677.83554	-1075.46584	352.27530	-763.20977	-1026.60499	357.69309	-708.94698	-943.43380	546.75912	-455.34064	-879.83125	666.64913	-438.58254	-978.11531	611.01607	-440.54667	-912.44838	660.99525	-757.54010	-1007.43379	582.89836	-759.28322	-833.92979	1002.29758	-425.48081	-813.42460	891.56638	-427.19121	-918.56265	865.22019	-421.32792	-944.69075	979.82807	-418.75252	-865.24681	857.69317	-405.58456	-860.15529	952.09303	-801.98823	-820.38639	820.97070	-777.30287	-966.24817	924.28612	-756.60747	-920.20111	791.55227	-747.35007	-824.92053	1131.75226	-473.26576	-998.50329	1220.04576	-554.80487	-824.49667	1117.01323	-728.69525	-1003.34210	1224.65105	-656.95570	-868.65030	1608.33612	-604.59866	-774.70493	1546.74629	-428.15226	-772.52450	1570.72970	-774.77592	-733.42612	1541.89908	-576.40749	-726.95351	1545.84358	-614.30411	-786.63962	1413.62694	-364.11952	-844.08901	1200.86037	-408.62546	-828.78825	1216.92002	-337.44241	-691.69703	1177.71570	-354.27996	-574.97752	1124.95193	-381.80431	-581.74563	1096.17822	-362.68056	-752.48820	1460.33430	-841.45099	-781.36037	1219.30690	-818.18088	-756.21682	1252.13765	-888.04224	-653.37742	1200.08766	-857.25257	-540.21100	1097.53680	-832.26515	-551.79616	1082.62529	-859.84675	-922.11690	1076.32703	-497.86919	-922.58391	1070.87869	-704.26770	-911.59061	1067.72678	-507.48870	-919.56785	1075.32432	-675.99457	
92	0.91000000	-823.65144	685.23349	-450.53050	-831.00722	602.93609	-470.46390	-1141.21031	460.11102	-487.19652	-1222.57437	464.80924	-529.02459	-1088.15412	366.83641	-446.25773	-1029.13638	364.18784	-498.59192	-830.88458	688.04882	-748.57374	-855.70310	592.23758	-747.48376	-1131.42810	450.11808	-721.65869	-1216.24833	445.89241	-676.90241	-1072.95249	353.72317	-763.03577	-1023.36307	356.52654	-709.09264	-935.27578	551.51211	-454.44909	-870.31874	669.98323	-438.71657	-969.59555	615.75915	-440.24383	-904.96170	666.45760	-759.24257	-1000.20941	588.35970	-759.57136	-817.00649	1005.70553	-425.84051	-798.87413	894.62307	-427.29289	-904.68715	870.65279	-420.98928	-928.21548	985.83657	-418.07366	-851.56009	861.99727	-405.31525	-847.68760	957.32691	-802.74606	-809.79067	825.34538	-778.86759	-953.74317	930.85059	-756.03843	-909.55029	797.49270	-747.80099	-808.23894	1140.23967	-473.75075	-984.67844	1223.56159	-553.50008	-809.64453	1125.90974	-729.56608	-990.46101	1228.08169	-655.76299	-865.29463	1615.75369	-604.35926	-771.29234	1557.40011	-428.14754	-768.61526	1580.97524	-773.80675	-728.74933	1550.77877	-576.20314	-722.04703	1554.66305	-613.99036	-781.91551	1424.39907	-363.09433	-838.63003	1211.38024	-406.53429	-822.98067	1228.21301	-334.86189	-684.92090	1194.36582	-352.43628	-566.21918	1146.60743	-380.50151	-571.67571	1117.06668	-361.69921	-746.61048	1472.20509	-841.79224	-771.93390	1230.60645	-821.62334	-746.28655	1264.82513	-890.81682	-642.24452	1217.11779	-858.23915	-525.37377	1120.59948	-830.77200	-535.00629	1105.33329	-859.56736	-903.82201	1082.00383	-497.70325	-906.02720	1076.90631	-704.10024	-893.40295	1073.82378	-507.41717	-902.93864	1081.27937	-676.08734	
93	0.92000000	-813.18176	690.15710	-450.11161	-820.96907	608.08279	-469.60087	-1131.96406	466.03911	-486.35890	-1211.99486	476.04000	-528.36210	-1084.37650	369.35439	-446.03112	-1025.45632	363.26424	-498.33487	-821.27956	693.94633	-751.03805	-846.61694	598.41656	-750.53641	-1122.45832	456.01724	-721.63609	-1205.72182	458.09848	-676.23037	-1069.59708	355.42581	-762.90966	-1019.27072	355.01840	-709.25066	-925.47219	557.30108	-453.29773	-858.98368	674.17365	-438.92701	-959.55977	621.74706	-439.49737	-896.00987	673.13461	-761.14980	-991.20491	594.93386	-760.30175	-799.57900	1010.43692	-426.23794	-783.29167	898.93710	-427.55465	-889.79590	877.05735	-420.52437	-911.20044	992.68642	-417.22432	-836.91001	867.30927	-404.88589	-834.28053	963.55209	-803.73410	-798.00857	830.99903	-780.52648	-940.17693	938.16467	-755.92646	-897.56006	804.25060	-748.30868	-791.78908	1149.34735	-474.22446	-970.54226	1227.43336	-552.35430	-794.50084	1135.97832	-730.23405	-977.38214	1232.00172	-654.52007	-861.74468	1623.41181	-603.97508	-768.18439	1568.26282	-428.05655	-765.04522	1591.54480	-772.93872	-724.03657	1560.03063	-575.76650	-716.48445	1564.42707	-615.10794	-777.64390	1435.35215	-362.07506	-834.39426	1222.06055	-404.03868	-817.24829	1239.62824	-332.59398	-678.64398	1210.63207	-350.63514	-558.20452	1167.53282	-378.92759	-562.52873	1137.59316	-360.32866	-741.13956	1484.37117	-842.10307	-762.90170	1242.31821	-824.92982	-736.65671	1278.14112	-893.94549	-631.77240	1234.35876	-859.22201	-511.45981	1143.49771	-829.57117	-519.55344	1127.93777	-859.25948	-885.37807	1088.20675	-497.74496	-888.97902	1083.84290	-704.13852	-874.88680	1080.68709	-507.33192	-886.18120	1088.22880	-675.98967	
94	0.93000000	-800.94850	696.48045	-449.34683	-809.29401	614.43707	-468.42268	-1120.32527	472.19096	-485.46339	-1198.68509	488.50148	-527.36628	-1079.50272	372.18088	-445.76163	-1021.14145	361.89122	-497.94514	-809.86316	700.78326	-753.82656	-835.68750	605.48495	-753.57047	-1111.15233	462.42811	-721.95529	-1192.04763	471.62741	-676.28517	-1065.16493	357.12942	-762.88036	-1014.52652	352.98677	-709.47634	-913.81635	563.93399	-451.93426	-847.26135	681.10360	-437.96510	-947.87155	628.70170	-438.39466	-885.20795	680.48624	-762.86927	-980.26841	602.43299	-761.57402	-782.18064	1016.52487	-426.57986	-767.40617	904.76493	-427.60014	-874.13543	884.39901	-419.79712	-893.94880	1000.26566	-416.23108	-821.42264	873.74509	-404.49647	-820.13307	970.56906	-804.76920	-785.13419	837.60270	-782.52991	-925.81976	946.01329	-756.27905	-884.36464	811.63505	-748.98012	-775.64561	1158.95971	-474.52260	-956.33530	1231.74836	-551.10446	-779.20256	1146.99912	-730.99012	-964.06552	1236.34249	-653.13680	-857.79349	1631.20405	-603.53480	-765.18656	1578.97618	-427.77726	-761.65077	1602.14713	-772.06474	-719.15452	1569.65859	-574.93342	-710.83147	1574.91502	-616.30177	-773.66468	1446.16448	-361.00547	-830.14153	1232.45745	-401.74763	-811.57421	1250.65039	-331.01982	-672.73345	1226.08049	-349.00425	-550.79557	1187.22092	-376.93313	-554.10040	1157.21259	-358.39541	-735.98076	1496.49541	-842.36951	-754.10602	1254.00302	-827.63040	-727.48714	1291.57563	-896.90415	-621.98668	1251.30754	-860.22421	-498.34473	1165.53309	-828.94639	-505.52121	1149.85788	-858.92123	-866.90658	1094.90211	-497.93795	-871.67658	1091.64306	-704.32565	-856.52347	1088.29727	-507.28056	-869.31435	1095.89867	-676.09861	
95	0.94000000	-786.81299	703.95259	-447.81492	-795.91460	621.77505	-466.78422	-1106.47784	478.67087	-484.30778	-1182.12359	501.71882	-526.16936	-1073.35827	375.08057	-445.65192	-1015.81145	360.28109	-497.36792	-796.63209	708.34577	-756.70299	-822.98117	613.17150	-756.56811	-1096.78873	469.01155	-722.97339	-1174.75040	485.73671	-677.17082	-1059.78667	358.57778	-762.74863	-1009.62580	350.47319	-709.85255	-900.30069	571.23400	-450.00466	-834.91308	690.24944	-435.83928	-934.52719	636.10090	-437.17798	-872.64035	688.21686	-764.61712	-967.49810	610.22633	-763.01232	-765.11708	1023.68337	-426.83823	-751.20824	911.86097	-427.31100	-857.95785	892.32336	-418.83332	-876.71665	1008.24045	-415.31412	-805.23449	881.18362	-404.00738	-805.45522	978.10251	-805.57753	-771.12333	845.03846	-784.75922	-910.89452	954.09528	-756.85496	-870.18667	819.39650	-749.83608	-759.35871	1169.79951	-475.22682	-942.27800	1236.49963	-549.84437	-764.01227	1158.66154	-731.57215	-950.58128	1241.00605	-651.69579	-853.22665	1639.02020	-603.02328	-762.00960	1589.25512	-427.45667	-758.19253	1612.51611	-771.25997	-713.83956	1579.38142	-573.95993	-705.57322	1584.72801	-615.64819	-769.73630	1456.60478	-359.87969	-824.22565	1242.48072	-400.61022	-805.97239	1260.97493	-330.02149	-667.05907	1240.39042	-347.39585	-543.78394	1205.36802	-374.68977	-546.22123	1175.28681	-356.18032	-730.98971	1508.38777	-842.55792	-745.54096	1265.37052	-829.49170	-718.90854	1304.33910	-898.79142	-612.91348	1267.44447	-861.14036	-486.29763	1186.39058	-828.65435	-492.72264	1170.74431	-858.88591	-848.03782	1102.59728	-498.04473	-854.19026	1100.01478	-704.40343	-838.00497	1096.81022	-507.77464	-851.75346	1104.27231	-676.43030	
